<?xml version="1.0" standalone="no"?>
<!DOCTYPE svg PUBLIC "-//W3C//DTD SVG 20010904//EN"
 "http://www.w3.org/TR/2001/REC-SVG-20010904/DTD/svg10.dtd">
<svg version="1.0" xmlns="http://www.w3.org/2000/svg"
 width="1120.000000pt" height="1120.000000pt" viewBox="0 0 1120.000000 1120.000000"
 preserveAspectRatio="xMidYMid meet">
<metadata>
Created by potrace 1.14, written by Peter Selinger 2001-2017
</metadata>
<g transform="translate(0.000000,1120.000000) scale(0.100000,-0.100000)"
fill="#000000" stroke="none">
<path d="M4379 10216 c-2 -2 -49 -7 -104 -10 -116 -8 -168 -13 -210 -20 -16
-3 -57 -8 -89 -12 -33 -3 -69 -8 -80 -10 -48 -11 -63 -14 -96 -18 -19 -3 -57
-10 -85 -16 -27 -7 -60 -14 -72 -16 -45 -8 -69 -13 -133 -30 -36 -9 -71 -16
-77 -17 -7 0 -13 -4 -13 -9 0 -5 -4 -7 -9 -4 -5 3 -28 -1 -51 -9 -24 -8 -52
-17 -64 -19 -12 -3 -40 -11 -63 -19 -22 -9 -44 -13 -47 -10 -3 4 -6 2 -6 -3 0
-5 -9 -10 -20 -11 -10 -1 -34 -8 -52 -16 -56 -25 -133 -51 -140 -49 -5 1 -8
-2 -8 -6 0 -5 -7 -9 -15 -10 -8 -1 -22 -3 -30 -4 -8 -1 -15 -5 -15 -10 0 -4
-4 -8 -10 -8 -5 0 -34 -11 -64 -25 -30 -14 -58 -25 -62 -25 -9 0 -359 -175
-399 -199 -16 -10 -46 -27 -65 -38 -102 -58 -247 -149 -260 -163 -3 -3 -18
-14 -35 -24 -47 -29 -180 -129 -183 -138 -2 -4 -10 -8 -17 -8 -7 0 -15 -3 -17
-8 -2 -4 -23 -23 -48 -42 -25 -19 -47 -37 -50 -40 -3 -3 -36 -32 -75 -65 -141
-120 -297 -273 -425 -415 -47 -52 -87 -97 -91 -100 -3 -3 -18 -23 -35 -45 -16
-21 -37 -48 -47 -58 -10 -10 -59 -73 -108 -140 -49 -67 -92 -126 -97 -132 -24
-31 -152 -236 -152 -244 0 -5 -4 -11 -8 -13 -9 -3 -12 -9 -71 -119 -18 -35
-37 -65 -42 -67 -5 -2 -9 -8 -9 -13 0 -4 -31 -73 -69 -151 -84 -177 -89 -187
-141 -323 -23 -60 -45 -119 -50 -130 -18 -44 -35 -91 -37 -102 -5 -21 -10 -37
-16 -53 -6 -16 -67 -225 -72 -250 -2 -8 -15 -62 -28 -120 -14 -58 -28 -122
-31 -144 -4 -21 -8 -42 -11 -46 -2 -4 -7 -27 -9 -51 -3 -24 -7 -53 -9 -64 -6
-25 -18 -113 -22 -163 -2 -20 -6 -54 -9 -75 -28 -205 -28 -748 0 -977 3 -25 7
-58 9 -75 9 -73 16 -125 21 -146 3 -13 6 -31 6 -39 1 -18 21 -127 44 -230 8
-41 18 -84 20 -95 4 -22 65 -238 90 -320 8 -27 16 -54 18 -60 1 -5 8 -20 14
-32 7 -13 11 -23 8 -23 -7 0 96 -263 151 -385 68 -150 201 -403 245 -467 10
-14 18 -30 18 -35 0 -6 9 -18 20 -28 11 -10 20 -22 20 -27 0 -13 174 -269 237
-348 222 -281 444 -515 673 -710 41 -35 77 -67 78 -72 2 -4 8 -8 14 -8 5 0 16
-7 24 -15 30 -29 241 -185 252 -185 5 0 12 -4 14 -8 6 -17 227 -157 388 -246
108 -60 300 -155 300 -148 0 4 4 2 8 -3 7 -11 235 -108 327 -140 28 -9 59 -21
70 -26 18 -7 153 -52 165 -54 3 -1 30 -8 60 -18 66 -19 165 -46 200 -54 49
-10 55 -11 55 -13 0 -1 11 -3 25 -6 14 -2 54 -11 90 -19 78 -18 184 -37 225
-41 17 -1 30 -3 30 -4 0 -1 11 -3 25 -5 99 -13 131 -16 175 -20 28 -2 82 -8
120 -12 85 -9 2316 -9 2500 1 72 3 150 8 175 11 25 3 69 7 99 10 56 6 94 11
159 21 20 3 51 7 67 10 17 2 41 6 55 9 14 3 41 8 60 11 19 3 43 7 52 10 9 3
27 7 40 9 21 4 37 8 96 20 12 3 32 7 45 11 12 3 32 7 44 10 74 15 345 99 448
139 39 15 78 28 87 30 17 4 32 10 130 54 26 11 50 21 52 21 2 0 48 21 103 46
54 25 100 45 102 44 2 -1 7 2 10 7 3 4 38 24 76 43 39 19 107 56 153 82 46 26
88 48 93 48 5 0 9 5 9 10 0 6 5 10 12 10 6 0 26 11 44 25 18 14 36 25 40 25 4
0 22 11 40 25 18 14 37 25 43 25 6 0 11 5 11 10 0 6 5 10 10 10 6 0 20 9 32
20 12 11 28 20 35 20 7 0 13 4 13 9 0 5 17 20 38 32 20 12 51 34 68 48 17 14
44 35 59 46 90 64 272 221 405 350 141 136 261 267 378 410 4 6 32 42 62 80
30 39 57 72 60 75 3 3 22 28 41 55 18 28 36 52 39 55 9 8 163 249 202 315 82
137 208 381 208 401 0 7 3 14 8 16 26 11 200 480 263 708 7 25 13 47 14 50 1
3 5 23 10 45 13 56 12 55 15 58 3 4 9 29 15 67 4 19 10 51 15 70 5 19 11 49
14 65 3 17 10 55 16 85 6 30 13 78 17 105 6 53 10 80 13 80 1 0 3 16 5 35 1
19 6 70 9 112 4 43 9 88 11 100 3 12 7 105 11 206 7 216 0 252 -57 310 -38 40
-96 62 -156 62 -68 -1 -163 -81 -179 -150 -3 -14 -7 -83 -9 -155 -4 -153 -12
-266 -29 -415 -5 -49 -23 -166 -31 -210 -3 -14 -7 -40 -10 -59 -3 -19 -7 -37
-9 -40 -2 -3 -7 -28 -10 -55 -4 -27 -9 -53 -12 -58 -6 -9 -13 -39 -19 -78 -2
-14 -9 -38 -15 -55 -6 -16 -11 -30 -10 -30 3 0 -20 -87 -27 -105 -3 -8 -7 -22
-9 -31 -6 -30 -82 -246 -94 -270 -8 -13 -13 -26 -13 -29 1 -8 -8 -33 -28 -77
-10 -24 -19 -45 -19 -47 0 -12 -149 -325 -160 -336 -3 -3 -15 -25 -27 -50 -24
-48 -73 -137 -86 -154 -4 -6 -44 -67 -89 -136 -76 -116 -178 -261 -203 -286
-5 -6 -21 -26 -35 -44 -14 -19 -32 -41 -40 -50 -8 -8 -25 -29 -38 -45 -61 -78
-278 -303 -402 -414 -25 -23 -56 -51 -70 -64 -14 -12 -62 -52 -107 -87 -46
-36 -83 -68 -83 -72 0 -5 -4 -8 -10 -8 -8 0 -106 -69 -170 -120 -14 -11 -30
-20 -37 -20 -6 0 -13 -3 -15 -8 -10 -24 -312 -199 -508 -295 -127 -61 -289
-133 -325 -143 -5 -1 -55 -19 -110 -39 -55 -20 -108 -38 -117 -40 -9 -2 -26
-9 -37 -15 -12 -6 -21 -8 -21 -6 0 3 -12 1 -27 -5 -16 -6 -35 -12 -43 -14 -8
-2 -42 -11 -75 -21 -33 -9 -69 -19 -80 -20 -11 -2 -49 -11 -85 -20 -36 -9 -85
-19 -110 -24 -25 -4 -54 -10 -65 -13 -11 -3 -45 -8 -75 -12 -30 -4 -64 -9 -75
-11 -49 -9 -197 -26 -255 -30 -25 -1 -45 -3 -45 -4 0 -1 -47 -3 -105 -5 -58
-2 -110 -4 -115 -5 -6 -2 -28 -2 -50 -1 l-40 2 85 41 c47 23 88 42 92 42 4 1
13 7 19 13 7 7 17 13 22 13 5 0 29 12 55 27 26 16 49 28 52 28 12 0 217 127
339 209 74 50 141 96 150 101 9 6 18 13 21 16 3 3 41 32 85 66 44 33 93 72
108 87 15 14 31 26 36 26 4 0 17 10 28 23 11 12 47 45 79 72 57 49 299 289
360 356 25 28 134 158 213 254 9 11 27 36 41 55 13 19 27 37 30 40 26 22 249
366 320 495 198 360 376 809 446 1125 3 14 7 32 9 40 2 8 4 15 5 15 2 0 5 15
13 60 3 17 8 41 11 55 9 40 25 122 31 155 3 17 7 41 10 54 4 20 7 45 20 141
22 170 35 371 37 560 1 136 -7 364 -17 455 -2 22 -7 65 -10 95 -12 111 -15
132 -35 250 -5 30 -12 69 -14 85 -5 29 -41 199 -51 240 -14 58 -35 136 -50
185 -9 30 -18 62 -20 70 -6 26 -62 192 -94 277 -46 128 -106 263 -188 427
-123 247 -156 306 -311 536 -58 85 -107 157 -111 160 -4 3 -18 21 -31 40 -13
19 -27 37 -30 40 -3 3 -24 30 -47 60 -23 30 -53 67 -65 81 -13 14 -48 55 -78
90 -61 70 -306 318 -385 389 -243 218 -551 438 -825 590 -98 54 -301 160 -310
162 -3 0 -30 12 -60 25 -146 66 -443 178 -499 189 -14 3 -29 8 -35 12 -6 3
-20 8 -30 9 -11 2 -38 10 -61 17 -22 8 -57 17 -78 21 -20 4 -40 11 -43 16 -3
5 -9 7 -13 5 -4 -3 -34 2 -67 11 -32 8 -66 16 -74 18 -8 2 -53 10 -100 19 -47
9 -96 18 -110 21 -34 7 -100 17 -130 20 -14 1 -51 6 -82 10 -31 4 -74 9 -95
11 -21 2 -56 6 -78 9 -49 6 -630 16 -636 11z m566 -410 c39 -2 70 -5 70 -6 0
-1 20 -3 45 -5 25 -2 63 -7 85 -10 22 -3 58 -8 80 -10 22 -3 51 -8 65 -10 14
-3 41 -8 60 -11 19 -3 67 -12 105 -20 39 -8 79 -16 91 -18 11 -2 74 -18 140
-36 65 -17 126 -33 134 -35 58 -14 331 -111 404 -145 25 -11 47 -20 50 -20 2
0 35 -14 73 -32 37 -18 70 -33 73 -33 14 -2 145 -71 148 -78 2 -4 8 -5 13 -1
5 3 9 2 9 -3 0 -4 15 -15 33 -22 48 -22 201 -113 209 -125 4 -6 8 -7 8 -3 0 4
15 -3 33 -17 19 -15 39 -26 45 -26 7 0 12 -3 12 -8 0 -4 16 -16 35 -26 19 -11
35 -23 35 -28 0 -4 6 -8 13 -8 8 0 25 -9 38 -20 13 -11 78 -62 144 -112 66
-51 122 -94 125 -97 3 -4 39 -35 80 -70 127 -110 356 -344 469 -481 23 -28 22
-27 71 -90 19 -25 37 -47 40 -50 3 -3 17 -21 30 -40 13 -19 27 -37 30 -40 8
-7 170 -249 170 -255 0 -2 14 -24 30 -48 17 -25 30 -49 30 -55 0 -6 3 -12 8
-14 8 -4 22 -29 108 -198 65 -130 124 -256 124 -267 0 -4 9 -25 19 -47 35 -75
128 -339 147 -416 2 -8 11 -42 20 -75 9 -33 18 -67 20 -75 17 -68 24 -100 29
-130 9 -46 13 -65 15 -65 2 0 4 -12 21 -120 6 -38 13 -77 14 -85 2 -9 6 -40 9
-70 4 -30 9 -73 12 -95 9 -72 17 -179 18 -247 0 -38 4 -68 8 -68 4 0 3 -14 -2
-31 -6 -20 -6 -39 1 -50 7 -13 6 -19 -1 -19 -7 0 -8 -6 -1 -18 5 -10 6 -24 1
-32 -5 -8 -5 -21 0 -31 5 -9 7 -18 5 -21 -3 -2 -7 -56 -10 -119 -7 -157 -21
-335 -31 -384 -2 -11 -6 -36 -9 -55 -5 -39 -11 -71 -25 -145 -5 -27 -12 -61
-14 -75 -12 -70 -29 -136 -37 -146 -5 -6 -6 -14 -3 -17 4 -3 -4 -38 -16 -78
-12 -40 -22 -80 -23 -90 -1 -11 -5 -19 -9 -19 -4 0 -8 -8 -8 -18 0 -33 -119
-368 -150 -424 -6 -10 -10 -25 -10 -33 0 -8 -5 -15 -12 -15 -6 0 -8 -3 -5 -6
4 -4 0 -19 -8 -33 -8 -14 -31 -62 -51 -106 -21 -44 -41 -82 -46 -83 -4 -2 -8
-10 -8 -17 0 -7 -16 -41 -35 -75 -19 -34 -35 -66 -35 -71 0 -5 -4 -9 -10 -9
-5 0 -10 -6 -10 -13 0 -7 -15 -36 -34 -65 -19 -28 -33 -52 -30 -52 3 0 -4 -10
-16 -22 -11 -12 -20 -28 -20 -35 0 -7 -4 -13 -10 -13 -5 0 -10 -6 -10 -13 0
-8 -9 -22 -20 -32 -11 -10 -20 -22 -20 -27 0 -5 -5 -14 -10 -21 -6 -7 -32 -42
-58 -78 -51 -73 -88 -122 -113 -150 -8 -10 -24 -30 -35 -44 -10 -15 -28 -37
-39 -49 -11 -13 -45 -52 -75 -87 -93 -108 -338 -349 -441 -434 -14 -11 -49
-40 -79 -65 -86 -72 -360 -270 -373 -270 -4 0 -88 -53 -123 -78 -59 -41 -514
-269 -514 -256 0 2 -21 -7 -47 -21 -26 -13 -51 -21 -55 -19 -4 3 -8 1 -8 -4 0
-5 -10 -12 -22 -15 -13 -3 -70 -22 -128 -42 -131 -45 -301 -95 -412 -121 -50
-11 -65 -15 -88 -19 -40 -8 -71 -14 -128 -26 -30 -6 -56 -8 -59 -5 -4 3 -11 1
-18 -4 -6 -5 -34 -11 -61 -14 -27 -2 -49 -5 -49 -6 0 -3 -51 -8 -131 -13 -33
-2 -65 -6 -70 -9 -17 -9 -604 -17 -604 -8 0 3 -26 5 -58 4 -31 0 -61 2 -66 4
-5 3 -29 6 -55 8 -56 4 -149 14 -176 19 -11 3 -37 7 -58 10 -21 3 -72 12 -113
21 -41 8 -79 12 -84 9 -6 -3 -10 -2 -10 3 0 5 -6 9 -12 10 -7 0 -24 3 -38 6
-14 3 -38 8 -55 12 -35 7 -213 54 -235 62 -8 3 -17 6 -20 7 -3 1 -39 11 -80
24 -41 12 -84 26 -95 31 -11 5 -69 28 -130 51 -184 70 -549 246 -593 287 -7 6
-20 12 -28 12 -8 0 -14 5 -14 10 0 6 -5 10 -11 10 -6 0 -30 13 -54 30 -24 16
-48 30 -54 30 -6 0 -11 4 -11 8 0 5 -17 18 -38 29 -43 25 -208 144 -284 206
-13 10 -38 31 -57 45 -127 100 -321 286 -463 443 -88 98 -105 117 -137 159
-14 19 -38 49 -53 65 -16 17 -28 33 -28 36 0 3 -11 19 -25 35 -14 16 -55 74
-92 129 -38 55 -71 102 -75 103 -5 2 -8 10 -8 18 0 8 -3 14 -8 14 -7 0 -13 10
-42 66 -8 16 -17 31 -20 34 -3 3 -12 18 -20 34 -29 56 -35 66 -42 66 -5 0 -8
9 -8 19 0 11 -4 21 -8 23 -17 6 -217 430 -227 479 -2 9 -8 25 -14 35 -5 11
-24 62 -42 114 -18 52 -36 99 -40 104 -4 5 -5 15 -2 22 3 8 1 14 -5 14 -6 0
-9 8 -8 18 2 9 0 24 -4 32 -14 28 -58 189 -74 270 -3 14 -7 36 -11 50 -6 29
-10 50 -20 105 -4 22 -9 49 -12 60 -6 36 -21 136 -29 203 -2 26 -7 58 -9 71
-17 99 -24 568 -12 740 13 169 18 217 24 246 4 17 8 39 9 50 6 59 16 121 35
215 28 136 27 135 28 138 1 1 1 3 1 5 0 1 12 45 26 97 24 88 32 119 37 145 2
6 5 15 9 20 4 8 17 55 23 85 0 3 7 16 15 30 7 14 12 26 11 28 -4 4 26 90 40
115 5 10 7 22 4 27 -3 4 -2 10 2 12 5 1 19 30 32 63 13 33 32 80 44 105 11 25
21 47 22 50 0 3 15 34 31 70 17 36 31 69 32 74 0 5 4 12 9 15 4 3 17 24 28 46
65 130 238 416 257 423 4 2 8 8 8 13 0 22 247 346 272 357 5 2 8 7 8 12 0 24
314 338 469 470 29 25 58 50 65 56 71 65 419 307 526 365 25 13 47 27 50 30
17 22 468 239 496 239 8 0 14 5 14 10 0 6 6 10 13 9 6 -2 30 5 52 15 38 17
199 75 220 80 6 1 26 7 45 13 106 33 178 54 200 57 14 3 26 5 28 7 3 2 10 4
57 14 56 13 55 12 58 15 1 1 11 3 22 4 11 2 47 8 80 15 33 6 69 13 80 15 11 2
40 7 65 11 25 4 54 9 64 11 35 6 131 16 173 18 24 0 43 3 43 6 0 3 21 5 48 5
26 0 67 2 92 5 49 6 452 3 565 -4z"/>
<path d="M4485 9532 c-2 -2 -23 -6 -47 -7 -68 -6 -185 -33 -283 -66 -80 -27
-243 -101 -270 -122 -5 -4 -40 -28 -77 -52 -37 -24 -82 -57 -100 -72 -42 -35
-186 -179 -218 -218 -39 -47 -123 -177 -145 -223 -11 -23 -23 -42 -27 -42 -5
0 -8 -6 -8 -13 0 -7 -9 -32 -20 -55 -11 -22 -20 -47 -20 -55 0 -7 -4 -17 -9
-22 -9 -10 -46 -128 -55 -175 -2 -14 -5 -25 -6 -25 -1 0 -3 -11 -5 -25 -2 -14
-7 -38 -11 -55 -10 -41 -13 -406 -4 -425 4 -8 10 -33 13 -55 3 -22 9 -53 12
-70 4 -16 8 -34 9 -40 4 -19 38 -120 47 -140 9 -21 31 -77 34 -85 4 -16 73
-143 102 -188 35 -55 45 -70 76 -103 9 -10 17 -22 17 -26 0 -18 211 -223 230
-223 5 0 10 -3 10 -7 0 -5 17 -19 38 -33 20 -14 39 -27 42 -31 12 -13 132 -80
202 -113 86 -40 259 -99 266 -91 3 3 10 1 16 -4 6 -6 29 -12 51 -15 22 -2 63
-8 90 -13 58 -9 344 -8 395 2 19 3 46 9 60 12 14 2 33 5 42 5 10 -1 20 4 23 9
4 5 10 7 15 4 5 -3 53 11 107 31 54 19 103 36 108 38 46 10 296 159 330 196
10 11 22 20 26 20 28 0 262 264 310 350 8 14 17 27 20 30 10 9 98 190 92 190
-3 0 -1 6 4 13 17 22 54 136 76 232 35 157 41 407 13 548 -4 15 -8 38 -11 52
-11 57 -16 73 -39 148 -84 262 -239 492 -459 680 -27 23 -61 49 -75 57 -15 8
-32 21 -40 27 -36 34 -237 139 -302 158 -3 1 -41 13 -85 27 -44 15 -96 29
-115 32 -19 3 -48 9 -65 12 -73 14 -369 27 -380 16z m264 -406 c77 -9 136 -23
219 -52 75 -25 173 -70 182 -84 3 -4 14 -10 26 -14 11 -3 29 -14 40 -24 10 -9
35 -29 55 -44 52 -38 149 -135 149 -148 0 -6 -4 -8 -10 -5 -9 6 -18 8 -72 20
-13 2 -36 8 -53 12 -16 3 -37 7 -45 9 -17 2 -81 13 -125 21 -41 7 -89 12 -155
18 -30 2 -55 5 -55 5 0 11 -418 15 -530 6 -38 -3 -90 -8 -115 -11 -25 -4 -61
-8 -80 -11 -32 -4 -112 -18 -166 -28 -12 -2 -37 -7 -55 -10 -19 -3 -58 -12
-86 -19 -29 -8 -53 -11 -53 -6 0 7 36 43 125 124 45 41 121 95 135 95 4 0 10
3 12 8 2 6 66 39 138 72 15 7 120 40 150 47 8 2 33 5 55 8 22 2 52 8 67 12 32
9 170 9 247 -1z"/>
<path d="M2077 7053 c-1 0 -24 -4 -52 -7 -138 -16 -205 -30 -320 -68 -93 -30
-270 -112 -293 -135 -7 -7 -17 -13 -22 -13 -5 0 -47 -28 -92 -61 -246 -183
-451 -470 -529 -742 -28 -98 -37 -137 -44 -183 -2 -21 -8 -52 -11 -69 -10 -47
-11 -274 -2 -335 5 -30 11 -71 14 -90 2 -19 10 -53 16 -75 5 -22 12 -47 13
-55 2 -8 4 -15 5 -15 1 0 3 -11 6 -25 2 -14 8 -34 13 -45 5 -11 16 -38 24 -60
19 -51 73 -161 97 -200 11 -16 27 -45 36 -62 9 -18 20 -33 25 -33 5 0 9 -7 9
-15 0 -8 4 -15 8 -15 4 0 16 -14 27 -32 26 -45 272 -288 291 -288 2 0 30 -18
62 -39 77 -53 183 -108 262 -137 36 -14 74 -29 85 -34 11 -5 58 -18 105 -29
77 -19 109 -24 205 -36 40 -6 262 -5 300 0 148 20 248 45 375 94 58 23 123 52
145 66 22 13 52 30 68 36 15 6 27 15 27 20 0 5 5 9 11 9 21 0 161 113 243 195
92 93 113 118 164 195 21 30 40 57 43 60 14 11 109 209 133 275 29 83 52 167
60 215 4 19 9 53 13 75 17 90 8 396 -14 489 -2 12 -6 34 -9 49 -2 16 -6 33 -9
38 -4 5 -8 17 -10 26 -26 134 -169 406 -278 530 -85 95 -182 188 -242 231 -6
4 -27 19 -47 35 -20 15 -41 27 -46 27 -6 0 -12 4 -14 9 -5 15 -149 88 -244
125 -170 66 -323 94 -525 99 -44 1 -81 1 -82 0z m-622 -704 c-4 -12 -9 -29
-10 -38 -2 -9 -4 -16 -5 -16 -2 0 -7 -24 -14 -72 -7 -45 -15 -90 -20 -118 -3
-11 -8 -47 -11 -80 -4 -33 -8 -67 -10 -75 -22 -82 -22 -562 -1 -690 3 -14 7
-50 10 -80 3 -30 8 -66 11 -80 3 -14 7 -38 9 -55 2 -16 7 -41 10 -55 3 -14 8
-37 10 -53 3 -15 7 -35 10 -45 3 -9 7 -30 10 -47 5 -28 2 -27 -52 30 -140 146
-249 356 -277 535 -4 25 -9 54 -11 65 -6 26 -5 222 0 255 12 70 18 100 32 150
9 30 14 55 13 56 -2 0 2 8 10 17 7 10 10 17 7 17 -4 0 18 50 50 110 31 61 61
110 65 110 4 0 10 8 14 19 3 10 30 45 60 77 30 32 55 61 55 65 0 7 17 17 33
18 5 1 5 -9 2 -20z"/>
<path d="M7048 7054 c-2 -1 -39 -4 -83 -8 -82 -5 -101 -8 -195 -28 -30 -7 -57
-12 -60 -13 -41 -8 -196 -68 -265 -102 -100 -50 -255 -150 -255 -166 0 -6 -3
-8 -6 -4 -4 3 -31 -17 -61 -46 -110 -104 -136 -131 -188 -202 -16 -22 -32 -42
-35 -45 -39 -35 -209 -374 -195 -388 2 -2 -1 -14 -7 -25 -10 -19 -30 -94 -43
-163 -13 -70 -18 -148 -19 -269 0 -117 3 -164 19 -245 4 -23 7 -36 20 -95 2
-11 8 -35 14 -52 5 -18 7 -33 4 -33 -3 0 0 -6 6 -13 6 -8 12 -22 14 -33 2 -10
10 -32 17 -49 61 -136 85 -184 129 -251 28 -42 51 -79 51 -81 0 -2 6 -10 13
-17 6 -8 32 -37 57 -67 25 -29 71 -78 103 -109 59 -55 246 -200 259 -200 4 0
29 -13 55 -28 26 -15 73 -38 103 -50 30 -13 64 -27 75 -32 35 -16 180 -58 216
-63 18 -3 34 -6 34 -7 0 -2 30 -6 105 -14 53 -6 262 -7 305 -1 76 9 121 17
134 21 8 3 30 7 50 10 20 3 44 10 54 15 9 5 17 7 17 3 0 -3 6 -2 13 3 6 6 24
13 39 17 15 3 40 11 55 18 15 6 30 12 33 13 3 1 19 8 35 15 17 7 33 14 36 14
3 1 48 25 99 54 97 56 186 119 255 183 22 21 49 46 60 56 11 10 45 47 75 83
30 36 58 67 63 68 4 2 7 10 7 18 0 8 5 14 10 14 6 0 10 6 10 14 0 8 4 16 8 18
8 3 86 127 87 138 1 3 12 28 27 55 26 51 49 113 47 129 0 5 3 12 9 15 5 3 18
44 30 91 41 163 47 212 46 380 0 156 -5 219 -16 226 -5 3 -6 9 -3 14 3 5 1 29
-6 52 -6 24 -13 54 -16 68 -12 68 -117 330 -135 338 -5 2 -8 8 -8 13 0 6 -8
22 -18 37 -11 15 -35 51 -55 81 -64 95 -167 208 -256 279 -25 20 -48 40 -51
43 -3 3 -39 29 -80 56 -212 139 -448 222 -685 239 -38 2 -89 6 -112 8 -24 1
-44 2 -45 0z m785 -717 c20 -19 37 -36 37 -39 0 -3 16 -23 35 -44 19 -21 35
-42 35 -47 0 -6 6 -15 14 -21 21 -16 100 -171 125 -245 20 -58 32 -107 48
-196 13 -71 5 -310 -11 -355 -3 -8 -7 -26 -10 -40 -7 -39 -56 -170 -84 -225
-40 -76 -113 -178 -175 -244 -57 -61 -73 -68 -56 -24 5 14 11 40 14 57 2 17 7
42 10 56 5 24 9 46 20 115 3 17 7 50 11 75 3 25 7 56 10 70 17 97 24 439 12
610 -6 83 -20 197 -33 280 -3 14 -7 41 -10 60 -9 56 -31 153 -40 173 -11 26 6
20 48 -16z"/>
<path d="M4568 6335 c-2 -2 -23 -5 -48 -8 -25 -3 -52 -8 -60 -11 -8 -3 -27 -7
-41 -10 -39 -6 -168 -68 -219 -105 -150 -108 -255 -264 -294 -441 -24 -104
-24 -206 0 -335 11 -58 76 -194 125 -261 45 -61 139 -153 157 -154 6 0 12 -4
12 -10 0 -5 7 -10 15 -10 8 0 15 -4 15 -8 0 -5 35 -25 78 -45 135 -63 269 -83
422 -64 56 8 141 30 163 44 7 4 17 8 22 9 16 3 138 76 163 98 58 52 99 94 128
131 37 48 109 175 99 175 -4 0 -3 6 3 13 33 40 57 240 42 347 -14 94 -21 125
-31 135 -5 5 -9 17 -9 26 0 23 -65 144 -104 194 -114 146 -294 254 -466 280
-46 7 -168 14 -172 10z m97 -409 c61 -7 85 -16 141 -53 55 -36 114 -113 133
-174 47 -148 -24 -319 -161 -390 -57 -30 -61 -31 -151 -35 -93 -3 -154 18
-222 78 -81 71 -115 152 -111 262 2 69 26 143 58 181 56 68 126 113 202 130
28 7 56 11 61 9 6 -2 28 -5 50 -8z"/>
<path d="M4458 4605 c-2 -1 -21 -5 -43 -9 -76 -11 -201 -39 -235 -53 -8 -3
-19 -7 -25 -8 -91 -22 -338 -156 -414 -224 -13 -11 -27 -21 -30 -21 -9 0 -169
-157 -210 -205 -36 -43 -131 -181 -131 -190 0 -3 -11 -22 -24 -43 -22 -35 -85
-172 -91 -196 -1 -6 -5 -18 -8 -26 -16 -37 -53 -179 -46 -174 5 3 2 -10 -5
-28 -7 -18 -12 -42 -10 -53 1 -10 -1 -24 -6 -30 -9 -11 -11 -364 -2 -380 3 -5
7 -18 8 -30 3 -22 7 -43 28 -140 22 -101 125 -337 179 -410 4 -5 22 -32 41
-60 38 -58 78 -105 156 -186 304 -315 753 -474 1195 -425 131 15 298 58 395
103 19 9 35 15 35 13 0 -9 240 132 255 151 3 3 12 10 21 15 26 14 137 114 183
163 23 25 48 52 56 61 9 8 31 38 50 65 19 28 37 52 40 55 11 10 86 136 102
170 59 125 122 314 114 337 -3 7 -1 15 3 17 17 11 35 174 34 301 -2 242 -40
402 -148 630 -40 86 -148 256 -166 263 -5 2 -9 8 -9 14 0 9 -145 157 -210 213
-41 36 -160 115 -210 140 -19 10 -38 22 -41 27 -3 5 -9 9 -13 9 -3 0 -32 11
-63 25 -53 23 -156 61 -193 70 -66 16 -100 24 -130 30 -19 3 -46 9 -60 11 -27
6 -366 13 -372 8z m-478 -2194 c25 -5 56 -12 69 -15 12 -3 42 -7 65 -10 22 -3
57 -7 76 -10 221 -33 603 -38 770 -12 24 4 147 17 162 17 4 0 22 5 40 10 18 5
51 12 73 15 22 2 56 9 75 14 66 19 73 12 28 -27 -24 -21 -44 -41 -46 -45 -2
-5 -11 -8 -19 -8 -9 0 -14 -3 -10 -6 11 -11 -220 -149 -266 -158 -7 -2 -19 -6
-27 -10 -8 -3 -58 -17 -110 -30 -83 -21 -114 -23 -245 -21 -82 2 -163 5 -180
9 -62 11 -134 31 -141 39 -4 4 -14 7 -21 7 -26 0 -167 71 -241 121 -40 28 -94
70 -120 95 l-47 46 35 -6 c19 -3 55 -10 80 -15z"/>
</g>
</svg>
