<svg xmlns="http://www.w3.org/2000/svg" width="200" viewBox="0 0 370 82.53273704015801" class="looka-1j8o68f"><defs id="SvgjsDefs5349"/><g id="SvgjsG5350" featurekey="e7LhAk-0" transform="matrix(1.198193130025419,0,0,1.198193130025419,-10.612399258515618,-18.897905849619963)" fill="#ffb400"><g xmlns="http://www.w3.org/2000/svg"><path d="M43.296,79.25c4.619,0,8.562-2.911,10.117-6.99c0.456-1.197,0.717-2.489,0.717-3.844c0-5.974-4.86-10.833-10.834-10.833   c-5.973,0-10.833,4.859-10.833,10.833c0,1.354,0.261,2.646,0.717,3.842C34.735,76.338,38.677,79.25,43.296,79.25z M43.298,74.47   c1.957,0,3.856-0.237,5.679-0.675c-1.429,1.508-3.444,2.455-5.681,2.455c-2.236,0-4.252-0.947-5.68-2.456   C39.439,74.231,41.34,74.47,43.298,74.47z"/><path d="M35.771,50.211c0-5.973-4.86-10.832-10.833-10.832c-1.285,0-2.512,0.236-3.656,0.648   c-4.178,1.504-7.178,5.495-7.178,10.184c0,4.689,3,8.682,7.178,10.187c1.144,0.412,2.372,0.648,3.656,0.648   C30.912,61.046,35.771,56.186,35.771,50.211z M17.104,50.211c0-2.332,1.03-4.422,2.652-5.858c-0.466,1.877-0.717,3.839-0.717,5.86   c0,2.021,0.251,3.982,0.717,5.858C18.134,54.635,17.104,52.543,17.104,50.211z"/><path d="M43.296,42.53c5.974,0,10.834-4.86,10.834-10.833c0-1.214-0.21-2.378-0.58-3.469c-1.451-4.275-5.495-7.364-10.254-7.364   s-8.803,3.09-10.253,7.366c-0.37,1.09-0.58,2.254-0.58,3.468C32.463,37.67,37.323,42.53,43.296,42.53z M43.296,23.863   c2.428,0,4.602,1.11,6.039,2.85c-1.93-0.494-3.953-0.758-6.037-0.758c-2.085,0-4.109,0.264-6.041,0.759   C38.695,24.974,40.868,23.863,43.296,23.863z"/><path d="M50.824,50.211c0,5.975,4.859,10.835,10.833,10.835c1.284,0,2.512-0.236,3.655-0.648c4.178-1.504,7.178-5.495,7.178-10.185   c0-4.69-3-8.681-7.178-10.186c-1.144-0.412-2.371-0.648-3.655-0.648C55.684,39.379,50.824,44.238,50.824,50.211z M69.49,50.213   c0,2.332-1.03,4.424-2.652,5.859c0.466-1.877,0.717-3.838,0.717-5.859s-0.251-3.983-0.717-5.86   C68.46,45.789,69.49,47.88,69.49,50.213z"/><path d="M37.818,50.213c0,3.021,2.458,5.479,5.479,5.479c3.021,0,5.479-2.458,5.479-5.479s-2.458-5.48-5.479-5.48   C40.276,44.733,37.818,47.191,37.818,50.213z M45.776,50.213c0,1.367-1.112,2.479-2.479,2.479c-1.367,0-2.479-1.112-2.479-2.479   c0-1.368,1.112-2.48,2.479-2.48C44.664,47.733,45.776,48.845,45.776,50.213z"/><path d="M92.316,49.705c0-0.829-0.672-1.5-1.5-1.5s-1.5,0.671-1.5,1.5c0,17.588-14.305,31.897-31.891,31.904   c11.962-5.405,20.312-17.44,20.312-31.397c0-18.991-15.45-34.44-34.44-34.44s-34.44,15.45-34.44,34.44   c0,18.991,15.45,34.441,34.44,34.441c0.581,0,1.158-0.016,1.731-0.044h12.387l0,0C76.66,84.608,92.316,68.951,92.316,49.705z    M11.857,50.212c0-17.336,14.104-31.44,31.44-31.44s31.44,14.104,31.44,31.44c0,16.782-13.217,30.534-29.787,31.397h-1.653   c-0.11,0-0.216,0.014-0.32,0.036C25.789,81.473,11.857,67.441,11.857,50.212z"/></g></g><g id="SvgjsG5351" featurekey="Qg0WB5-0" transform="matrix(2.0786565464106004,0,0,2.0786565464106004,117.90055393440687,18.32302277057615)" fill="#f6f6f6"><path d="M2.44 5.59 q0.02 -0.18 0.14 -0.31 t0.34 -0.13 l3.46 0 q0.37 0 0.48 0.38 l2.72 9.08 l2.74 -9.08 q0.14 -0.38 0.51 -0.38 l3.42 0 q0.18 0 0.325 0.125 t0.165 0.315 q0.35 3.52 0.715 6.985 t0.715 6.985 l0 0.05 q0 0.39 -0.44 0.39 l-2.83 0 q-0.46 0 -0.48 -0.44 l-0.87 -7.73 l-2.25 7.78 q-0.02 0.1 -0.145 0.24 t-0.245 0.14 l-2.63 0 q-0.12 0 -0.255 -0.135 t-0.145 -0.245 l-2.25 -7.76 l-0.87 7.71 q-0.02 0.44 -0.49 0.44 l-2.83 0 q-0.43 0 -0.43 -0.44 z M19.39 13.66 q0 -0.92 0.235 -1.77 t0.66 -1.575 t1.02 -1.32 t1.325 -1.015 t1.575 -0.65 t1.765 -0.23 q1.36 0 2.555 0.505 t2.08 1.39 t1.4 2.08 t0.515 2.585 q0 0.92 -0.235 1.765 t-0.66 1.575 t-1.02 1.325 t-1.325 1.02 t-1.565 0.655 t-1.745 0.23 q-0.92 0 -1.765 -0.23 t-1.575 -0.655 t-1.325 -1.02 t-1.02 -1.325 t-0.66 -1.575 t-0.235 -1.765 z M23.040000000000003 13.66 q0 0.66 0.205 1.235 t0.58 0.995 t0.91 0.665 t1.205 0.245 q0.65 0 1.175 -0.245 t0.89 -0.665 t0.56 -0.995 t0.195 -1.235 q0 -0.64 -0.195 -1.22 t-0.56 -1.02 t-0.89 -0.695 t-1.175 -0.255 q-0.67 0 -1.205 0.255 t-0.91 0.695 t-0.58 1.02 t-0.205 1.22 z M32.96 8.29 q-0.2 -0.41 -0.075 -0.7 t0.595 -0.29 l2.56 0 q0.26 0 0.455 0.14 t0.275 0.4 q0.17 0.53 0.375 1.19 t0.43 1.355 t0.445 1.38 t0.405 1.26 t0.33 1 t0.215 0.605 l2.12 -6.79 q0.13 -0.32 0.295 -0.43 t0.465 -0.11 l2.63 0 q0.29 0 0.44 0.07 t0.2 0.19 t0.02 0.275 t-0.1 0.325 l-4.76 11.41 q-0.11 0.18 -0.26 0.305 t-0.45 0.125 l-1.19 0 q-0.4 0 -0.565 -0.115 t-0.245 -0.315 z M46.559999999999995 8.08 q0 -0.32 0.18 -0.55 t0.56 -0.23 l2.29 0 q0.12 0 0.26 0.055 t0.26 0.16 t0.205 0.245 t0.085 0.32 l0 11.15 q0 0.38 -0.21 0.575 t-0.6 0.195 l-2.29 0 q-0.74 0 -0.74 -0.77 l0 -11.15 z M46.559999999999995 3.0199999999999996 q0 -0.42 0.18 -0.595 t0.56 -0.175 l2.32 0 q0.35 0 0.565 0.175 t0.215 0.595 l0 1.95 q0 0.12 -0.055 0.26 t-0.155 0.27 t-0.245 0.215 t-0.325 0.085 l-2.32 0 q-0.74 0 -0.74 -0.83 l0 -1.95 z M63.44 18.48 q-0.88 0.81 -1.98 1.265 t-2.33 0.455 q-1.37 0 -2.59 -0.5 t-2.14 -1.385 t-1.46 -2.085 t-0.54 -2.61 q0 -0.88 0.215 -1.705 t0.61 -1.545 t0.96 -1.325 t1.265 -1.035 t1.52 -0.67 t1.73 -0.24 q0.83 0 1.61 0.22 t1.465 0.62 t1.255 0.96 t0.98 1.225 t0.635 1.42 t0.225 1.555 q0 0.52 -0.015 0.85 t-0.155 0.525 t-0.465 0.27 t-0.955 0.075 l-7.2 0 q0.1 0.64 0.405 1.07 t0.705 0.685 t0.85 0.365 t0.85 0.11 q0.36 0 0.74 -0.075 t0.735 -0.2 t0.65 -0.29 t0.475 -0.345 q0.16 -0.13 0.275 -0.195 t0.245 -0.065 t0.265 0.09 t0.305 0.26 l1.06 1.2 q0.11 0.13 0.14 0.235 t0.03 0.215 q0 0.2 -0.11 0.345 t-0.26 0.255 z M58.629999999999995 10.15 q-0.39 0 -0.755 0.155 t-0.685 0.415 t-0.575 0.59 t-0.415 0.67 l5.11 0 q-0.21 -0.39 -0.455 -0.72 t-0.56 -0.58 t-0.72 -0.39 t-0.945 -0.14 z M70.50999999999999 19.23 q-0.09 0.19 -0.15 0.335 t-0.135 0.24 t-0.185 0.145 t-0.3 0.05 l-1.98 0 q-0.8 0 -0.8 -0.77 l0 -14.94 q0 -0.17 0.065 -0.31 t0.17 -0.24 t0.24 -0.155 t0.265 -0.055 l2.27 0 q0.38 0 0.6 0.22 t0.22 0.54 l0 4.56 q0.28 -0.3 0.6 -0.61 t0.695 -0.565 t0.825 -0.415 t1 -0.16 q1.36 0 2.505 0.505 t1.97 1.39 t1.29 2.08 t0.465 2.585 q0 1.38 -0.465 2.58 t-1.29 2.085 t-1.97 1.395 t-2.505 0.51 q-0.51 0 -0.96 -0.175 t-0.84 -0.445 t-0.72 -0.58 t-0.6 -0.58 z M76.53999999999999 13.66 q0 -0.64 -0.205 -1.22 t-0.585 -1.02 t-0.91 -0.695 t-1.19 -0.255 t-1.235 0.255 t-0.995 0.695 t-0.665 1.02 t-0.245 1.22 l0 0.14 q0.03 0.63 0.285 1.18 t0.675 0.955 t0.98 0.635 t1.2 0.23 q0.66 0 1.19 -0.245 t0.91 -0.665 t0.585 -0.995 t0.205 -1.235 z M95.22999999999999 19.26 q0 0.17 -0.06 0.325 t-0.2 0.245 q-0.11 0.11 -0.26 0.14 t-0.26 0.03 l-1.97 0 q-0.21 0 -0.34 -0.055 t-0.21 -0.155 t-0.135 -0.245 t-0.115 -0.315 l-0.29 -0.75 q-0.27 0.27 -0.59 0.575 t-0.705 0.565 t-0.835 0.435 t-0.96 0.175 q-0.91 0 -1.745 -0.23 t-1.56 -0.655 t-1.315 -1.02 t-1.015 -1.325 t-0.655 -1.575 t-0.23 -1.765 q0 -1.39 0.51 -2.585 t1.39 -2.08 t2.07 -1.39 t2.55 -0.505 q0.62 0 1.14 0.185 t0.945 0.485 t0.77 0.68 t0.615 0.77 l0.39 -1.21 q0.1 -0.25 0.165 -0.405 t0.14 -0.23 t0.185 -0.1 t0.31 -0.025 l1.49 0 q0.11 0 0.26 0.03 t0.26 0.14 q0.14 0.11 0.2 0.25 t0.06 0.32 l0 11.27 z M85.38 13.66 q0 0.66 0.205 1.235 t0.585 0.995 t0.915 0.665 t1.185 0.245 q0.67 0 1.245 -0.245 t1 -0.665 t0.665 -0.995 t0.24 -1.235 q0 -0.64 -0.24 -1.22 t-0.665 -1.02 t-1 -0.695 t-1.245 -0.255 q-0.65 0 -1.185 0.255 t-0.915 0.695 t-0.585 1.02 t-0.205 1.22 z M99.52999999999999 16.05 q0.27 0.27 0.585 0.455 t0.605 0.3 t0.51 0.165 t0.3 0.05 q0.19 0 0.485 -0.015 t0.565 -0.09 t0.465 -0.245 t0.195 -0.48 q0 -0.28 -0.11 -0.445 t-0.32 -0.28 t-0.515 -0.205 t-0.685 -0.21 q-1.2 -0.32 -1.98 -0.77 t-1.235 -1.005 t-0.635 -1.195 t-0.18 -1.35 q0 -0.83 0.33 -1.51 t0.94 -1.165 t1.46 -0.75 t1.89 -0.265 q0.63 0 1.18 0.105 t1.05 0.33 t0.975 0.58 t0.945 0.845 q0.17 0.2 0.175 0.375 t-0.225 0.375 q-0.39 0.32 -0.745 0.63 t-0.735 0.69 q-0.12 0.1 -0.24 0.125 t-0.23 -0.005 t-0.21 -0.1 t-0.18 -0.17 q-0.35 -0.39 -0.8 -0.525 t-0.84 -0.135 q-0.49 0 -0.78 0.17 t-0.27 0.52 q0.02 0.26 0.195 0.405 t0.43 0.235 t0.54 0.145 t0.525 0.125 q0.9 0.29 1.65 0.63 t1.3 0.835 t0.855 1.185 t0.305 1.68 t-0.395 1.77 t-1.085 1.31 t-1.635 0.81 t-2.035 0.28 q-0.62 0 -1.26 -0.11 t-1.24 -0.355 t-1.14 -0.63 t-0.96 -0.935 q-0.11 -0.14 -0.165 -0.295 t-0.05 -0.305 t0.06 -0.275 t0.175 -0.215 l1.29 -1.29 q0.24 -0.2 0.425 -0.14 t0.475 0.34 z M119.85 18.48 q-0.88 0.81 -1.98 1.265 t-2.33 0.455 q-1.37 0 -2.59 -0.5 t-2.14 -1.385 t-1.46 -2.085 t-0.54 -2.61 q0 -0.88 0.215 -1.705 t0.61 -1.545 t0.96 -1.325 t1.265 -1.035 t1.52 -0.67 t1.73 -0.24 q0.83 0 1.61 0.22 t1.465 0.62 t1.255 0.96 t0.98 1.225 t0.635 1.42 t0.225 1.555 q0 0.52 -0.015 0.85 t-0.155 0.525 t-0.465 0.27 t-0.955 0.075 l-7.2 0 q0.1 0.64 0.405 1.07 t0.705 0.685 t0.85 0.365 t0.85 0.11 q0.36 0 0.74 -0.075 t0.735 -0.2 t0.65 -0.29 t0.475 -0.345 q0.16 -0.13 0.275 -0.195 t0.245 -0.065 t0.265 0.09 t0.305 0.26 l1.06 1.2 q0.11 0.13 0.14 0.235 t0.03 0.215 q0 0.2 -0.11 0.345 t-0.26 0.255 z M115.03999999999999 10.15 q-0.39 0 -0.755 0.155 t-0.685 0.415 t-0.575 0.59 t-0.415 0.67 l5.11 0 q-0.21 -0.39 -0.455 -0.72 t-0.56 -0.58 t-0.72 -0.39 t-0.945 -0.14 z"/></g></svg>